<svg version="1.1" id="Layer_1" xmlns="http://www.w3.org/2000/svg" xmlns:xlink="http://www.w3.org/1999/xlink" x="0px" y="0px"
	 width="100%" viewBox="0 0 243 195" enable-background="new 0 0 243 195" xml:space="preserve">
<path fill="#FDFDFD" opacity="1.000000" stroke="none" 
	d="
M143.000000,196.000000 
	C95.333336,196.000000 48.166672,196.000000 1.000006,196.000000 
	C1.000004,131.000000 1.000004,66.000015 1.000002,1.000015 
	C81.999992,1.000010 162.999985,1.000010 243.999969,1.000005 
	C243.999985,65.999985 243.999985,130.999969 244.000000,195.999969 
	C210.500000,196.000000 177.000000,196.000000 143.000000,196.000000 
M95.939003,100.942657 
	C97.550308,106.619087 90.141891,104.471657 89.177887,108.912430 
	C92.609718,108.762436 95.608261,108.631378 98.606796,108.500320 
	C98.762238,108.833382 98.917679,109.166435 99.073128,109.499489 
	C98.389267,109.941246 97.705406,110.383003 96.311134,111.021065 
	C94.532654,111.700363 92.754173,112.379669 90.327858,113.221542 
	C85.922752,117.879303 81.517647,122.537056 77.001709,127.311996 
	C78.954216,128.060883 80.476753,128.644852 81.891785,129.956146 
	C81.628761,130.738037 80.911903,131.758865 81.177147,132.262619 
	C82.775673,135.298767 81.909561,138.103210 81.090614,141.136093 
	C80.283997,144.123337 82.075851,145.153122 85.033623,145.043961 
	C89.911469,144.863968 94.809761,145.149918 99.678307,144.870926 
	C100.826569,144.805115 101.937393,143.325119 102.983498,142.402740 
	C104.903114,140.710190 106.761757,138.948471 108.642265,138.008514 
	C108.490845,138.982742 107.979469,140.087433 108.273979,140.900040 
	C108.695854,142.064087 109.706268,143.014832 110.465393,144.056641 
	C110.847092,142.819244 111.576691,141.571747 111.541100,140.346466 
	C111.456009,137.417297 111.010475,134.498581 110.865288,130.816162 
	C110.894028,130.559402 110.922760,130.302628 111.004684,129.993942 
	C111.004684,129.993942 111.055740,129.939911 111.697861,129.657227 
	C113.903313,128.442444 116.084251,127.180199 118.320541,126.025116 
	C120.995972,124.643227 124.188530,123.855431 126.293861,121.887024 
	C128.572968,119.756149 129.866638,116.566887 131.556976,113.818848 
	C131.693909,113.596207 131.575043,113.216209 131.575043,112.909332 
	C130.105316,111.978607 129.058990,110.324577 129.422256,109.912148 
	C131.971329,107.018181 129.711655,105.647537 127.972115,103.863968 
	C126.187927,102.034637 124.652031,99.963142 122.332230,97.659225 
	C122.318375,96.261307 122.304512,94.863380 122.996346,93.375816 
	C121.982071,89.932045 120.967796,86.488281 119.800476,82.146187 
	C119.554344,81.590782 119.308212,81.035378 119.097076,80.556183 
	C119.097076,80.556183 119.069901,80.572464 118.657761,79.468369 
	C118.467407,79.124725 118.277054,78.781090 118.077911,78.549187 
	C118.077911,78.549187 118.102158,78.491058 117.968163,77.551285 
	C117.789955,76.745987 117.563171,75.947853 117.443153,75.133972 
	C117.148491,73.135849 116.903008,71.130486 116.637749,69.128029 
	C114.424553,70.273712 112.186928,71.375923 110.015556,72.596046 
	C109.481415,72.896187 109.163277,73.580742 108.032288,73.865196 
	C106.758896,70.685173 105.485504,67.505157 104.173798,64.229454 
	C103.699265,64.769051 103.077782,65.475739 101.633835,66.133415 
	C98.753525,66.499962 96.662964,67.461754 96.751282,71.016815 
	C96.779564,72.155457 95.886681,73.748306 94.920181,74.407684 
	C90.033493,77.741531 92.461983,81.390495 94.260017,85.718498 
	C94.174004,86.145348 94.087990,86.572197 93.268158,87.079971 
	C91.808754,87.836960 90.349358,88.593956 88.889954,89.350952 
	C89.061684,89.733208 89.233414,90.115463 89.405144,90.497726 
	C90.926620,90.333496 92.448090,90.169266 94.061348,90.675392 
	C94.017334,91.124130 93.973320,91.572868 93.404884,92.532837 
	C92.718040,94.724945 92.031197,96.917046 91.196716,99.580353 
	C92.821930,99.776695 94.347336,99.960983 95.939003,100.942657 
z"/>
<path fill="#FBF6EE" opacity="1.000000" stroke="none" 
	d="
M110.951500,130.045868 
	C110.922760,130.302628 110.894028,130.559402 110.521744,131.262665 
	C109.746559,132.480896 109.314919,133.252609 108.601608,134.054749 
	C108.009575,134.387344 107.699211,134.689499 107.388847,134.991669 
	C107.850075,135.317337 108.311310,135.642990 108.828354,136.179749 
	C108.910019,136.696182 108.830574,136.971100 108.645821,137.215591 
	C106.761757,138.948471 104.903114,140.710190 102.983498,142.402740 
	C101.937393,143.325119 100.826569,144.805115 99.678307,144.870926 
	C94.809761,145.149918 89.911469,144.863968 85.033623,145.043961 
	C82.075851,145.153122 80.283997,144.123337 81.090614,141.136093 
	C81.909561,138.103210 82.775673,135.298767 81.177147,132.262619 
	C80.911903,131.758865 81.628761,130.738037 82.360062,129.530365 
	C85.457100,128.864182 88.085854,128.623779 90.691391,128.731934 
	C90.708717,130.919601 90.749252,132.758682 90.789795,134.597763 
	C91.398262,134.691299 92.006721,134.784821 92.615189,134.878357 
	C93.996918,126.600616 99.119804,122.019806 106.477936,119.106239 
	C109.927238,117.740425 112.847115,115.037544 116.126678,112.732697 
	C116.681015,112.354141 117.115585,112.183510 117.751358,112.284966 
	C118.143410,112.677338 118.334251,112.797638 118.515411,112.894867 
	C118.505722,112.871803 118.589485,112.887123 118.844406,112.593079 
	C119.074005,111.449905 119.048668,110.600792 119.018433,109.355255 
	C119.015640,107.638412 119.017761,106.317970 119.409050,105.080978 
	C123.872520,104.120911 121.725517,100.291534 123.007477,97.997635 
	C124.652031,99.963142 126.187927,102.034637 127.972115,103.863968 
	C129.711655,105.647537 131.971329,107.018181 129.422256,109.912148 
	C129.058990,110.324577 130.105316,111.978607 131.575043,112.909332 
	C131.575043,113.216209 131.693909,113.596207 131.556976,113.818848 
	C129.866638,116.566887 128.572968,119.756149 126.293861,121.887024 
	C124.188530,123.855431 120.995972,124.643227 118.320541,126.025116 
	C116.084251,127.180199 113.903313,128.442444 111.312241,129.524719 
	C110.615913,129.081741 110.305199,128.771286 109.994492,128.460815 
	C109.817352,128.671478 109.640205,128.882126 109.463058,129.092773 
	C109.959198,129.410461 110.455353,129.728165 110.951500,130.045868 
M88.210716,137.225006 
	C87.011002,138.232849 85.811287,139.240677 83.923767,140.826309 
	C95.961113,141.772430 104.706345,136.528717 106.884483,126.739792 
	C104.115112,129.398056 102.196465,131.303497 100.208344,133.133484 
	C97.041901,136.048050 93.553688,138.102524 88.210716,137.225006 
M119.564064,119.105202 
	C123.802162,121.215897 125.007935,118.967560 124.483406,114.368042 
	C122.664299,115.852448 120.845192,117.336853 119.564064,119.105202 
M126.590790,108.518883 
	C126.590790,108.518883 126.480171,108.585037 126.590790,108.518883 
z"/>
<path fill="#D86F43" opacity="1.000000" stroke="none" 
	d="
M93.929306,92.021606 
	C93.973320,91.572868 94.017334,91.124130 94.112511,89.971268 
	C94.109779,88.511116 94.055878,87.755081 94.001976,86.999046 
	C94.087990,86.572197 94.174004,86.145348 94.425827,85.083099 
	C97.213188,78.359276 99.834740,72.270859 102.456299,66.182434 
	C103.077782,65.475739 103.699265,64.769051 104.173798,64.229454 
	C105.485504,67.505157 106.758896,70.685173 108.486572,74.300262 
	C110.254318,76.485275 111.567772,78.235229 112.531288,80.032684 
	C111.122223,81.623253 110.063110,83.166313 108.721924,84.737869 
	C108.261108,84.827583 108.082344,84.888809 107.777122,84.640137 
	C106.550690,82.846809 105.450699,81.363403 103.414368,78.617271 
	C102.512520,82.073486 101.985542,84.093063 101.340469,86.410011 
	C101.217705,87.131172 101.213036,87.554970 101.079559,88.417877 
	C101.005104,91.887604 101.059448,94.918221 100.774223,97.918427 
	C99.622871,97.049805 98.811089,96.211609 97.976700,95.350067 
	C97.166618,95.995796 96.446465,96.569847 95.492081,96.878067 
	C94.815010,95.082031 94.372162,93.551819 93.929306,92.021606 
z"/>
<path fill="#D7833F" opacity="1.000000" stroke="none" 
	d="
M109.003990,84.709381 
	C110.063110,83.166313 111.122223,81.623253 112.657730,80.144836 
	C113.134125,80.209488 113.127205,80.546417 113.113770,80.929764 
	C113.865929,82.132965 114.631523,82.952812 115.675911,83.787888 
	C116.326431,83.813988 116.698158,83.824867 117.059219,83.883057 
	C117.048546,83.930359 117.145538,83.929008 117.221466,84.268112 
	C118.961807,87.559975 120.626228,90.512718 122.290657,93.465462 
	C122.304512,94.863380 122.318375,96.261307 122.669853,97.828430 
	C121.725517,100.291534 123.872520,104.120911 119.461540,104.740417 
	C119.838013,97.224037 116.900757,91.698624 111.948227,86.982468 
	C111.696945,86.621712 111.242928,86.403778 110.827179,86.144791 
	C110.865463,86.103737 110.918709,86.202576 110.791626,85.912437 
	C110.289436,85.450218 109.914314,85.278145 109.365074,85.061295 
	C109.190948,85.016525 109.003990,84.709381 109.003990,84.709381 
z"/>
<path fill="#399ECB" opacity="1.000000" stroke="none" 
	d="
M113.127205,80.546417 
	C113.127205,80.546417 113.134125,80.209488 113.007675,80.097336 
	C111.567772,78.235229 110.254318,76.485275 108.843353,74.411942 
	C109.163277,73.580742 109.481415,72.896187 110.015556,72.596046 
	C112.186928,71.375923 114.424553,70.273712 116.637749,69.128029 
	C116.903008,71.130486 117.148491,73.135849 117.443153,75.133972 
	C117.563171,75.947853 117.789955,76.745987 118.036758,78.001923 
	C118.105347,78.452560 118.086700,78.437454 118.086700,78.437454 
	C118.277054,78.781090 118.467407,79.124725 118.864365,79.997513 
	C119.070976,80.526649 119.062080,80.479973 119.062080,80.479973 
	C119.308212,81.035378 119.554344,81.590782 119.596359,82.701813 
	C118.643341,83.481300 117.894440,83.705154 117.145538,83.929008 
	C117.145538,83.929008 117.048546,83.930359 117.025932,83.613037 
	C116.515549,82.843452 116.027771,82.391190 115.258270,81.733093 
	C114.360092,81.200325 113.743645,80.873367 113.127205,80.546417 
z"/>
<path fill="#2D4F85" opacity="1.000000" stroke="none" 
	d="
M90.714615,128.383362 
	C88.085854,128.623779 85.457100,128.864182 82.413818,129.166702 
	C80.476753,128.644852 78.954216,128.060883 77.001709,127.311996 
	C81.517647,122.537056 85.922752,117.879303 90.924545,113.384048 
	C92.469292,113.768295 93.417351,113.990028 94.311325,114.571533 
	C90.213181,118.394783 86.169121,121.858246 82.125061,125.321709 
	C82.327591,125.797287 82.530121,126.272865 82.732651,126.748436 
	C85.306442,126.375534 87.880234,126.002625 90.642456,125.941002 
	C90.792130,126.962639 90.753372,127.673004 90.714615,128.383362 
z"/>
<path fill="#FBF6EE" opacity="1.000000" stroke="none" 
	d="
M102.045067,66.157928 
	C99.834740,72.270859 97.213188,78.359276 94.387878,84.757217 
	C92.461983,81.390495 90.033493,77.741531 94.920181,74.407684 
	C95.886681,73.748306 96.779564,72.155457 96.751282,71.016815 
	C96.662964,67.461754 98.753525,66.499962 102.045067,66.157928 
z"/>
<path fill="#FBF6EE" opacity="1.000000" stroke="none" 
	d="
M97.021538,110.824753 
	C97.705406,110.383003 98.389267,109.941246 99.073128,109.499489 
	C98.917679,109.166435 98.762238,108.833382 98.606796,108.500320 
	C95.608261,108.631378 92.609718,108.762436 89.177887,108.912430 
	C90.141891,104.471657 97.550308,106.619087 95.959503,100.485474 
	C95.980003,100.028282 96.090462,99.918434 96.284393,99.984940 
	C96.478333,100.051437 96.869003,100.176544 96.873871,100.450569 
	C97.131058,101.194000 97.383362,101.663399 97.720947,102.484512 
	C99.550240,105.527412 101.294250,108.218613 102.536514,110.953247 
	C100.363693,110.939369 98.692612,110.882057 97.021538,110.824753 
z"/>
<path fill="#4C81A3" opacity="1.000000" stroke="none" 
	d="
M96.666336,110.922905 
	C98.692612,110.882057 100.363693,110.939369 102.795494,111.054688 
	C104.332832,112.035149 105.109451,112.957596 105.886063,113.880051 
	C104.998055,114.359924 104.110039,114.839798 102.781143,115.231911 
	C99.681984,114.833351 97.023697,114.522552 94.365417,114.211754 
	C93.417351,113.990028 92.469292,113.768295 91.248459,113.302765 
	C92.754173,112.379669 94.532654,111.700363 96.666336,110.922905 
z"/>
<path fill="#2D4F85" opacity="1.000000" stroke="none" 
	d="
M108.883270,134.024307 
	C109.314919,133.252609 109.746559,132.480896 110.444336,131.642426 
	C111.010475,134.498581 111.456009,137.417297 111.541100,140.346466 
	C111.576691,141.571747 110.847092,142.819244 110.465393,144.056641 
	C109.706268,143.014832 108.695854,142.064087 108.273979,140.900040 
	C107.979469,140.087433 108.490845,138.982742 108.644043,137.612061 
	C108.830574,136.971100 108.910019,136.696182 108.906166,135.860901 
	C108.913200,134.895416 108.898232,134.459854 108.883270,134.024307 
z"/>
<path fill="#4C81A3" opacity="1.000000" stroke="none" 
	d="
M117.221466,84.268112 
	C117.894440,83.705154 118.643341,83.481300 119.672882,83.150978 
	C120.967796,86.488281 121.982071,89.932045 122.643501,93.420639 
	C120.626228,90.512718 118.961807,87.559975 117.221466,84.268112 
z"/>
<path fill="#FBF6EE" opacity="1.000000" stroke="none" 
	d="
M93.667099,92.277222 
	C94.372162,93.551819 94.815010,95.082031 95.526154,97.226776 
	C95.893112,98.533684 95.991783,99.226059 96.090454,99.918434 
	C96.090462,99.918434 95.980003,100.028282 95.926376,100.086777 
	C94.347336,99.960983 92.821930,99.776695 91.196716,99.580353 
	C92.031197,96.917046 92.718040,94.724945 93.667099,92.277222 
z"/>
<path fill="#FBF6EE" opacity="1.000000" stroke="none" 
	d="
M93.635071,87.039505 
	C94.055878,87.755081 94.109779,88.511116 94.066620,89.636093 
	C92.448090,90.169266 90.926620,90.333496 89.405144,90.497726 
	C89.233414,90.115463 89.061684,89.733208 88.889954,89.350952 
	C90.349358,88.593956 91.808754,87.836960 93.635071,87.039505 
z"/>
<path fill="#4C81A3" opacity="1.000000" stroke="none" 
	d="
M119.079575,80.518082 
	C119.062080,80.479973 119.070976,80.526649 119.070435,80.549561 
	C119.069901,80.572464 119.097076,80.556183 119.079575,80.518082 
z"/>
<path fill="#4C81A3" opacity="1.000000" stroke="none" 
	d="
M118.082306,78.493317 
	C118.086700,78.437454 118.105347,78.452560 118.103752,78.471809 
	C118.102158,78.491058 118.077911,78.549187 118.082306,78.493317 
z"/>
<path fill="#F4F6F1" opacity="1.000000" stroke="none" 
	d="
M111.745483,87.125298 
	C116.900757,91.698624 119.838013,97.224037 119.072365,104.656975 
	C119.017761,106.317970 119.015640,107.638412 118.750099,109.571144 
	C118.174515,110.793259 117.862343,111.403076 117.550171,112.012894 
	C117.115585,112.183510 116.681015,112.354141 115.783569,112.630554 
	C110.587151,110.637383 106.732361,107.650055 105.016983,102.020737 
	C105.392670,97.037628 105.746185,92.556068 106.319435,87.864334 
	C106.993973,86.752785 107.448769,85.851410 107.903564,84.950043 
	C108.082344,84.888809 108.261108,84.827583 108.721924,84.737869 
	C109.003990,84.709381 109.190948,85.016525 109.513237,85.338890 
	C110.196587,85.841698 110.557648,86.022141 110.918709,86.202576 
	C110.918709,86.202576 110.865463,86.103737 110.916504,86.361832 
	C111.167419,86.879852 111.426735,87.048309 111.745483,87.125298 
z"/>
<path fill="#D7833F" opacity="1.000000" stroke="none" 
	d="
M104.994820,102.522285 
	C106.732361,107.650055 110.587151,110.637383 115.663818,112.838470 
	C112.847115,115.037544 109.927238,117.740425 106.477936,119.106239 
	C99.119804,122.019806 93.996918,126.600616 92.615189,134.878357 
	C92.006721,134.784821 91.398262,134.691299 90.789795,134.597763 
	C90.749252,132.758682 90.708717,130.919601 90.691399,128.731934 
	C90.753372,127.673004 90.792130,126.962639 90.591537,125.861588 
	C90.352196,125.470886 90.245377,125.316933 90.583366,125.249825 
	C93.136642,122.838997 95.351929,120.495277 97.883324,118.110626 
	C99.873634,117.153015 101.547836,116.236343 103.222031,115.319672 
	C104.110039,114.839798 104.998055,114.359924 105.886063,113.880051 
	C105.109451,112.957596 104.332832,112.035149 103.297234,111.011253 
	C101.294250,108.218613 99.550240,105.527412 98.088020,102.414902 
	C98.804077,101.276047 99.238342,100.558525 99.672600,99.840996 
	C98.738068,99.952843 97.803535,100.064697 96.869003,100.176544 
	C96.869003,100.176544 96.478333,100.051437 96.284393,99.984940 
	C95.991783,99.226059 95.893112,98.533684 95.760376,97.492599 
	C96.446465,96.569847 97.166618,95.995796 97.976700,95.350067 
	C98.811089,96.211609 99.622871,97.049805 101.004875,98.146698 
	C102.715004,99.777695 103.854912,101.149986 104.994820,102.522285 
z"/>
<path fill="#D7833F" opacity="1.000000" stroke="none" 
	d="
M88.600464,137.092529 
	C93.553688,138.102524 97.041901,136.048050 100.208344,133.133484 
	C102.196465,131.303497 104.115112,129.398056 106.884483,126.739792 
	C104.706345,136.528717 95.961113,141.772430 83.923767,140.826309 
	C85.811287,139.240677 87.011002,138.232849 88.600464,137.092529 
z"/>
<path fill="#2D4F85" opacity="1.000000" stroke="none" 
	d="
M119.295074,118.963226 
	C120.845192,117.336853 122.664299,115.852448 124.483406,114.368042 
	C125.007935,118.967560 123.802162,121.215897 119.295074,118.963226 
z"/>
<path fill="#D7833F" opacity="1.000000" stroke="none" 
	d="
M117.751366,112.284973 
	C117.862343,111.403076 118.174515,110.793259 118.755005,109.967560 
	C119.048668,110.600792 119.074005,111.449905 118.787338,112.512001 
	C118.475334,112.724976 118.525093,112.917931 118.525093,112.917931 
	C118.334251,112.797638 118.143410,112.677338 117.751366,112.284973 
z"/>
<path fill="#FDFDFD" opacity="1.000000" stroke="none" 
	d="
M110.978088,130.019897 
	C110.455353,129.728165 109.959198,129.410461 109.463058,129.092773 
	C109.640205,128.882126 109.817352,128.671478 109.994492,128.460815 
	C110.305199,128.771286 110.615913,129.081741 110.991180,129.666061 
	C111.055740,129.939911 111.004684,129.993942 110.978088,130.019897 
z"/>
<path fill="#FDFDFD" opacity="1.000000" stroke="none" 
	d="
M108.601608,134.054749 
	C108.898232,134.459854 108.913200,134.895416 108.850357,135.649811 
	C108.311310,135.642990 107.850075,135.317337 107.388847,134.991669 
	C107.699211,134.689499 108.009575,134.387344 108.601608,134.054749 
z"/>
<path fill="#FDFDFD" opacity="1.000000" stroke="none" 
	d="
M126.535477,108.551956 
	C126.480171,108.585037 126.590790,108.518883 126.535477,108.551956 
z"/>
<path fill="#F4F6F1" opacity="1.000000" stroke="none" 
	d="
M118.515411,112.894867 
	C118.525093,112.917931 118.475334,112.724976 118.532410,112.806046 
	C118.589485,112.887123 118.505722,112.871803 118.515411,112.894867 
z"/>
<path fill="#4C81A3" opacity="1.000000" stroke="none" 
	d="
M105.016983,102.020737 
	C103.854912,101.149986 102.715004,99.777695 101.344444,98.177116 
	C101.059448,94.918221 101.005104,91.887604 101.321747,88.698212 
	C101.901855,90.329300 102.110977,92.119171 102.230537,93.142494 
	C103.348282,91.598816 104.660919,89.785980 106.004486,87.999229 
	C106.035423,88.025314 106.099709,88.074501 106.099701,88.074501 
	C105.746185,92.556068 105.392670,97.037628 105.016983,102.020737 
z"/>
<path fill="#4C81A3" opacity="1.000000" stroke="none" 
	d="
M107.777115,84.640137 
	C107.448769,85.851410 106.993973,86.752785 106.319443,87.864334 
	C106.099709,88.074501 106.035423,88.025314 106.015976,87.619987 
	C105.856148,81.196434 103.265656,85.267525 101.458557,86.112648 
	C101.985542,84.093063 102.512520,82.073486 103.414368,78.617271 
	C105.450699,81.363403 106.550690,82.846809 107.777115,84.640137 
z"/>
<path fill="#399ECB" opacity="1.000000" stroke="none" 
	d="
M101.340469,86.410011 
	C103.265656,85.267525 105.856148,81.196434 105.985046,87.593903 
	C104.660919,89.785980 103.348282,91.598816 102.230537,93.142494 
	C102.110977,92.119171 101.901855,90.329300 101.450546,88.259094 
	C101.213036,87.554970 101.217705,87.131172 101.340469,86.410011 
z"/>
<path fill="#D86F43" opacity="1.000000" stroke="none" 
	d="
M113.113770,80.929764 
	C113.743645,80.873367 114.360092,81.200325 115.161530,82.030060 
	C115.363388,82.946121 115.380257,83.359390 115.397118,83.772667 
	C114.631523,82.952812 113.865929,82.132965 113.113770,80.929764 
z"/>
<path fill="#4C81A3" opacity="1.000000" stroke="none" 
	d="
M115.675911,83.787888 
	C115.380257,83.359390 115.363388,82.946121 115.443260,82.235886 
	C116.027771,82.391190 116.515549,82.843452 117.036606,83.565735 
	C116.698158,83.824867 116.326431,83.813988 115.675911,83.787888 
z"/>
<path fill="#D86F43" opacity="1.000000" stroke="none" 
	d="
M111.948227,86.982468 
	C111.426735,87.048309 111.167419,86.879852 110.878220,86.402893 
	C111.242928,86.403778 111.696945,86.621712 111.948227,86.982468 
z"/>
<path fill="#D86F43" opacity="1.000000" stroke="none" 
	d="
M110.791626,85.912437 
	C110.557648,86.022141 110.196587,85.841698 109.687363,85.383667 
	C109.914314,85.278145 110.289436,85.450218 110.791626,85.912437 
z"/>
<path fill="#F4F6F1" opacity="1.000000" stroke="none" 
	d="
M90.245377,125.316933 
	C90.245377,125.316933 90.352196,125.470886 90.403107,125.550308 
	C87.880234,126.002625 85.306442,126.375534 82.732651,126.748436 
	C82.530121,126.272865 82.327591,125.797287 82.125061,125.321709 
	C86.169121,121.858246 90.213181,118.394783 94.311325,114.571533 
	C97.023697,114.522552 99.681984,114.833351 102.781143,115.231911 
	C101.547836,116.236343 99.873634,117.153015 97.461548,118.074867 
	C94.749619,118.786476 92.730629,119.389450 90.811890,120.223137 
	C87.791306,121.535591 87.865036,123.332230 90.245377,125.316933 
z"/>
<path fill="#D86F43" opacity="1.000000" stroke="none" 
	d="
M96.873871,100.450569 
	C97.803535,100.064697 98.738068,99.952843 99.672600,99.840996 
	C99.238342,100.558525 98.804077,101.276047 98.002747,102.063187 
	C97.383362,101.663399 97.131058,101.194000 96.873871,100.450569 
z"/>
<path fill="#FBF6EE" opacity="1.000000" stroke="none" 
	d="
M90.583366,125.249825 
	C87.865036,123.332230 87.791306,121.535591 90.811890,120.223137 
	C92.730629,119.389450 94.749619,118.786476 97.145432,118.115799 
	C95.351929,120.495277 93.136642,122.838997 90.583366,125.249825 
z"/>
</svg>